<!--?xml version="1.0" standalone="no"?-->
              <svg id="sw-js-blob-svg" viewBox="0 0 100 100" xmlns="http://www.w3.org/2000/svg" version="1.1">
                    <defs> 
                        <linearGradient id="sw-gradient" x1="0" x2="1" y1="1" y2="0">
                            <stop id="stop1" stop-color="rgba(248.938, 220.285, 1.406, 1)" offset="0%"></stop>
                            <stop id="stop2" stop-color="rgba(0, 18.621, 135.156, 1)" offset="100%"></stop>
                        </linearGradient>
                    </defs>
                <path fill="url(#sw-gradient)" d="M20.6,-35.1C26,-32.5,29.2,-25.6,31.1,-19C33,-12.5,33.7,-6.2,33.8,0C33.8,6.3,33.3,12.6,30.9,18.4C28.6,24.2,24.3,29.5,18.9,34.6C13.4,39.7,6.7,44.5,0.4,43.8C-6,43.2,-11.9,37.1,-17.3,32C-22.8,26.9,-27.6,22.8,-30.6,17.7C-33.6,12.5,-34.8,6.2,-34.1,0.4C-33.4,-5.4,-30.8,-10.9,-27.8,-16C-24.7,-21.1,-21.2,-25.8,-16.5,-28.8C-11.8,-31.7,-5.9,-32.8,0.8,-34.3C7.6,-35.7,15.2,-37.6,20.6,-35.1Z" width="100%" height="100%" transform="translate(50 50)" stroke-width="0" style="transition: all 0.3s ease 0s;" stroke="url(#sw-gradient)"></path>
              </svg>